# Blender v2.78 (sub 0) OBJ File: 'Lake_Mills_Residence_Expansion.blend'
# www.blender.org
mtllib Lake_Mills_Residence_Expansion.mtl
o Design4VRML.050_Design4VRML.056
v 8357.667969 -753.526123 2692.390137
v 8357.667969 -753.526123 4165.580078
v 4026.994629 -753.526123 2692.390137
v 4026.994629 -753.526123 4165.580078
v 6185.976074 -753.526123 5975.333496
v 8357.667969 -651.926270 2692.390381
v 8357.667969 -651.926270 4165.580078
v 4026.994629 -651.926270 2692.390381
v 4026.994629 -651.926270 4165.580078
v 6185.976074 -651.926270 5975.333496
vn 0.0000 -1.0000 0.0000
vn 0.0000 1.0000 0.0000
vn 1.0000 0.0000 0.0000
vn -1.0000 0.0000 0.0000
vn -0.6424 0.0000 0.7664
vn 0.6402 0.0000 0.7682
vn 0.0000 0.0000 -1.0000
usemtl wall
s off
f 2//1 5//1 4//1 3//1 1//1
f 7//2 6//2 8//2 9//2 10//2
f 2//3 1//3 6//3 7//3
f 3//4 4//4 9//4 8//4
f 4//5 5//5 10//5 9//5
f 5//6 2//6 7//6 10//6
f 1//7 3//7 8//7 6//7
